# xmcd
#
# Track frame offsets:
#	150
#	13148
#	26277
#	39364
#	53305
#	66917
#	80848
#	91992
#	105823
#	117216
#	127416
#	140612
#	152477
#	163896
#	177101
#	189842
#	201052
#	214658
#	224979
#	237796
#	250134
#	263126
#	277081
#	291158
#	305760
#
# Disc length: 4265 seconds
# Revision: 1
# Processed by: cddbd v1.5.2PL0 Copyright (c) Steve Scherf et al.
# Submitted via: dBpowerAMP V12.0
#
DISCID=6b10a719
DTITLE=Various Artist - Western Swing and Country Jazz [CD2 of 4)
DYEAR=2005
DGENRE=Country
TTITLE0=Roy Newman and His Boys - Rhythm Is Our Business
TTITLE1=Roy Newman and His Boys - Drag Along Blues
TTITLE2=Roy Newman and His Boys - Garbage Man Blues
TTITLE3=Roy Newman and His Boys - Tin Roof Blues
TTITLE4=Roy Newman and His Boys - Dinah
TTITLE5=Roy Newman and His Boys - Hot Dog Stomp
TTITLE6=Roy Newman and His Boys - Black and Blue
TTITLE7=Roy Newman and His Boys - 12th Street Rag
TTITLE8=Roy Newman and His Boys - Mississippi Mud
TTITLE9=Roy Newman and His Boys - Takin' Off
TTITLE10=Roy Newman and His Boys - Match Box Blues
TTITLE11=Roy Newman and His Boys - Kansas City Blues
TTITLE12=Roy Newman and His Boys - My Baby Rocks Me
TTITLE13=Roy Newman and His Boys - Downhearted Blues
TTITLE14=Roy Newman and His Boys - Sadie Green (The Vamp of New Orleans)
TTITLE15=Modern Mountaineers - Everybody's Truckin'
TTITLE16=Modern Mountaineers - Dirty Dog Blues
TTITLE17=Modern Mountaineers - Loud Mouth
TTITLE18=Modern Mountaineers - Who's Cryin' Sweet Papa Now?
TTITLE19=Modern Mountaineers - Never Slept Last Night
TTITLE20=Modern Mountaineers - You Got to Know How to Truck and Swing
TTITLE21=Modern Mountaineers - Gettin' That Low Down Swing
TTITLE22=Modern Mountaineers - Drifting Along
TTITLE23=Modern Mountaineers - Sweet Little Girl of Mine
TTITLE24=Modern Mountaineers - Mississippi Sandman
EXTD=
EXTT0=
EXTT1=
EXTT2=
EXTT3=
EXTT4=
EXTT5=
EXTT6=
EXTT7=
EXTT8=
EXTT9=
EXTT10=
EXTT11=
EXTT12=
EXTT13=
EXTT14=
EXTT15=
EXTT16=
EXTT17=
EXTT18=
EXTT19=
EXTT20=
EXTT21=
EXTT22=
EXTT23=
EXTT24=
PLAYORDER=
